<svg width="51" height="39" viewBox="0 0 51 39" fill="none" xmlns="http://www.w3.org/2000/svg">
<g clip-path="url(#clip0_308_490)">
<path d="M15.9375 19.5C15.9375 14.2318 23.4058 9.96197 28.6875 9.96197V6.78262C25.306 6.78262 22.063 8.12249 19.6719 10.5075C17.2808 12.8924 15.9375 16.1272 15.9375 19.5Z" fill="#5E5E5E"/>
<path d="M39.2636 3.60327H45.6864C48.6189 3.60327 51 5.97506 51 8.90324V30.0968C51 33.0218 48.6221 35.3967 45.6864 35.3967H39.2636C36.131 37.4762 32.4505 38.5826 28.6875 38.5761C24.9246 38.5823 21.2442 37.4759 18.1114 35.3967H5.31356C2.38106 35.3967 0 33.025 0 30.0968V8.90324C0 5.97824 2.37788 3.60327 5.31356 3.60327H6.375C6.375 2.76005 6.71082 1.95137 7.3086 1.35513C7.90637 0.758884 8.71712 0.423918 9.5625 0.423918H12.75C13.5954 0.423918 14.4061 0.758884 15.0039 1.35513C15.6017 1.95137 15.9375 2.76005 15.9375 3.60327H18.1114C21.244 1.52377 24.9245 0.417367 28.6875 0.423918C32.5986 0.423918 36.2323 1.59392 39.2636 3.60327ZM6.375 8.37229C6.375 7.95068 6.20709 7.54634 5.9082 7.24822C5.60932 6.9501 5.20394 6.78261 4.78125 6.78261C4.35856 6.78261 3.95318 6.9501 3.6543 7.24822C3.35541 7.54634 3.1875 7.95068 3.1875 8.37229C3.1875 8.7939 3.35541 9.19824 3.6543 9.49636C3.95318 9.79448 4.35856 9.96196 4.78125 9.96196C5.20394 9.96196 5.60932 9.79448 5.9082 9.49636C6.20709 9.19824 6.375 8.7939 6.375 8.37229ZM44.625 19.5C44.625 15.2839 42.9459 11.2405 39.957 8.25931C36.9682 5.2781 32.9144 3.60327 28.6875 3.60327C24.4606 3.60327 20.4068 5.2781 17.418 8.25931C14.4291 11.2405 12.75 15.2839 12.75 19.5C12.75 23.7161 14.4291 27.7595 17.418 30.7407C20.4068 33.7219 24.4606 35.3967 28.6875 35.3967C32.9144 35.3967 36.9682 33.7219 39.957 30.7407C42.9459 27.7595 44.625 23.7161 44.625 19.5Z" fill="#5E5E5E"/>
</g>
<defs>
<clipPath id="clip0_308_490">
<rect width="51" height="39" fill="white"/>
</clipPath>
</defs>
</svg>
